<?xml version="1.0" encoding="UTF-8"?>
<svg id="Layer_2" data-name="Layer 2" xmlns="http://www.w3.org/2000/svg" viewBox="0 0 757 101.28">
  <defs>
    <style>
      .cls-1 {
        fill: #016699;
      }

      .cls-2 {
        fill: #fefefe;
      }
    </style>
  </defs>
  <g id="Layer_1-2" data-name="Layer 1">
    <path class="cls-1" d="M39.5,1c18.66,2.29,34.62,18.56,24.71,37.71-1.54,2.97-10.55,9.63-10.21,10.27.27.5,7.2,2.7,9.88,5.63,13.48,14.72.97,43.38-18.38,43.38H0V1c12.45,1.11,27.36-1.49,39.5,0ZM18,43c11.94.87,36.81.35,30.23-18.74-1.09-3.16-6.84-7.26-9.73-7.26h-20.5v26ZM18,83h22.5c14.72,0,15.25-26,0-26h-22.5v26Z"/>
    <path class="cls-1" d="M355.95,27.93c-.41.69-14.55,5.37-15.33,5.16-3.16-.87-7.07-21.59-30.4-14.36-30.85,9.56-22.42,72.19,15.59,63.59,7.75-1.75,14.8-11.98,15.79-12.22.76-.18,14.03,5.22,14.39,5.91,3.59,6.87-19.55,21.03-25.98,22.5-75.5,17.34-76.3-115.72,1.98-96.02,7.19,1.81,28.38,18,23.95,25.43Z"/>
    <path class="cls-1" d="M382,0v35c14.74-17.27,45-7.76,45,15.5v47.5h-17v-43.5c0-17.45-28-16.15-28,0v43.5h-17V0h17Z"/>
    <path class="cls-1" d="M598,1v54c4.29-2.08,22.68-27,24.5-27h19.5c-1.71,4.96-23.86,25.75-23.85,28.33.02,3.58,24.62,35.04,26.85,41.67h-19.5c-2.22,0-18.16-30.8-20-30.98-.53-.05-7.5,6.95-7.5,7.48v23.5h-17V1h17Z"/>
    <path class="cls-1" d="M454,69c-3.13,2.86,6.42,13.39,10.71,14.79,14.39,4.69,19.4-5.82,23.79-5.82,1,0,10.47,6.62,10.4,8.36-.27,7.32-22.04,13.78-28.33,13.69-53.58-.82-41.51-91.41,11.42-71.51,17.62,6.62,22.25,40.49,17.51,40.49-5.99,0-43.82-1.54-45.5,0ZM484,56c-1.57-20.51-29.49-20.48-31,0h31Z"/>
    <path class="cls-1" d="M107.78,26.28c59.52-6.45,51.39,87.97-6.32,71.76-35.51-9.98-31.84-67.63,6.32-71.76ZM109.75,41.23c-22.32,2.84-20.41,44.78,4.51,43.5s23.1-47.02-4.51-43.5Z"/>
    <path class="cls-1" d="M659,69c-2.8,2.35,7.35,13.68,12.45,15.05,14.09,3.8,18.86-6.07,23.05-6.08,1.07,0,10.82,6.38,10.34,8.34-2,8.08-21.84,13.91-29.29,13.67-52.73-1.67-39.04-92.12,13.12-71.16,17.73,7.13,22.16,40.17,16.83,40.17-6.13,0-44.72-1.5-46.5,0ZM659,56c1.19,1,26.95-.75,31,0,1.26-13.8-16.77-20.29-25.99-11.49-1.54,1.47-5.8,10.83-5.01,11.49Z"/>
    <path class="cls-1" d="M217,98h-17c-.4,0,.3-6.99-.01-8-17.08,21.2-57.76,5.55-42.2-22.71,2.71-4.93,13.34-11.29,18.71-11.29h22.5c-.76-29.98-25.63-7.18-29.47-7.02-1.03.04-11.2-5.64-11.48-6.62-1.51-5.29,14.1-14.07,18.71-15.1,49.06-10.95,37.64,41.34,40.23,70.74ZM183.79,67.29c-35.37,5.55,12.25,34.02,15.23,7.23,1.13-10.13-6.91-8.54-15.23-7.23Z"/>
    <path class="cls-1" d="M530.36,46.36c-12.4,12.68-3.78,41.97,17.71,37.2,6.02-1.33,10.5-9.16,11.53-9.41,1.13-.28,14.19,5.58,14.37,6.34.49,2.09-11.7,13.83-14.65,15.33-65.33,33.03-68.72-95.75-1.95-66.69,4.03,1.75,17.72,13.75,15.21,17.91-.39.65-13.36,5.98-14.11,5.82-1.68-.35-12.31-22.67-28.11-6.5Z"/>
    <path class="cls-1" d="M249,9v19h18v15h-18v32.5c0,13.95,17.17,5.74,17.99,6.5.56.52,3.4,14.32,2.96,14.95-4.75,6.74-37.95,3.19-37.95-15.45v-38.5c0-.5-10,.5-10,0v-14.5c0-3.68,10,0,10-.5V9h17Z"/>
    <path class="cls-1" d="M757,26v18c0,1.66-24-3.37-24,17.5v36.5h-17V28h17c.45,0-.73,8.85.49,8.99,1.35.16,13.21-17.21,23.51-10.99Z"/>
    <path class="cls-2" d="M18,83v-26h22.5c15.25,0,14.72,26,0,26h-22.5Z"/>
    <path class="cls-2" d="M18,43v-26h20.5c2.89,0,8.64,4.11,9.73,7.26,6.59,19.09-18.29,19.61-30.23,18.74Z"/>
    <path class="cls-2" d="M484,56h-31c1.51-20.48,29.43-20.51,31,0Z"/>
    <path class="cls-2" d="M109.75,41.23c27.61-3.52,29.71,42.21,4.51,43.5s-26.82-40.66-4.51-43.5Z"/>
    <path class="cls-2" d="M659,56c-.79-.66,3.46-10.02,5.01-11.49,9.22-8.8,27.26-2.31,25.99,11.49-4.05-.75-29.81,1-31,0Z"/>
    <path class="cls-2" d="M183.79,67.29c8.32-1.31,16.36-2.9,15.23,7.23-2.98,26.79-50.61-1.67-15.23-7.23Z"/>
  </g>
</svg>