<?xml version="1.0" encoding="UTF-8"?>
<svg id="Layer_2" data-name="Layer 2" xmlns="http://www.w3.org/2000/svg" viewBox="0 0 507.5 545.14">
  <defs>
    <style>
      .cls-1 {
        fill: #016699;
      }

      .cls-2 {
        fill: #10a39e;
      }
    </style>
  </defs>
  <g id="Layer_1-2" data-name="Layer 1">
    <path class="cls-1" d="M10.44,373.94c-7.11-1.57-7.51-8.52-5.34-14.35,1.66-4.47,31.86-35.73,37.81-43.19,63.23-79.22,111.04-165.76,123.89-268.11,1.1-8.74-.2-44.97,7.18-47.82,8.65-3.34,33.8,11.87,42.27,16.66,67.79,38.33,129.14,102.44,164.24,171.76l-134.58,129.58c-2.88.95-27.69-15.48-27.79-17.85-.07-1.8,12.12-27.74,13.87-33.16,26.25-81.48,22.19-160.12-36.03-226.53v246c-15.96-5.76-41.41-29.71-57.52-30.97-22.43-1.76-37.67,24.86-24.32,43.32l61.84,74.66H10.44Z"/>
    <path class="cls-1" d="M294.94,483.94l-3,1c-25.38,1.85-49.37,10.42-73.53,11.97-48.68,3.12-91.16-18.73-142.95-13.95-8.17.75-34.96,8.14-38.91,7.7-10.32-1.16-38.54-52.68-36.44-62.97.52-2.55,4.25-5.88,6.59-6.49,12.06-3.13,48.52.24,63.77-.23,54.83-1.68,109.69-5.14,164.47-7.03,15.66,16.21,24.06,8.74,37-4,20.58-2.39,41.36-3.25,62-5l5-1c2.3-.2,4.7.2,7,0l4-1c48.13-4.19,96.22-9.02,144.47-11.97,17.16,4.09-7.98,34.65-12.83,42.1-8.5,13.07-36.26,54.73-48.63,59.37-32.6,12.23-97.27-10.72-138.01-8.51Z"/>
    <path class="cls-2" d="M411.94,243.94c-36.39,43.51-72.74,87.23-110,130-9.68,11.11-19.79,25.95-30,36-12.94,12.74-21.34,20.21-37,4l-105.55-126.94c-2.93-8.06,4.24-15.45,12.27-12.27l103.78,68.24c31.61-29.56,63.92-58.47,95.5-88.03,2.4-2.25,4.69-4.84,7-7,17.31-16.18,134.92-130.83,145.49-132.03,9.15-1.04,17.89,7.75,12.33,16.36-31.48,37.05-62.64,74.38-93.82,111.67Z"/>
    <path class="cls-2" d="M108.94,525.94c-1.03-.35-2.7-2.45-4,0-8.79-5.08-85.09-2.29-85.99-6.51-.32-1.5,26.34-10.8,28.56-11.43,73.6-21.01,117.72,16.45,183.63,6.63,22.86-3.4,43.36-12.52,67.25-13.75,42.13-2.16,75.98,16.54,115.1,15.1,23.41-.86,47.07-10.26,67.96-20.02-18.06,26.59-53.77,40.69-85.04,42.95-34.45,2.49-68.11-6.84-103.01-5.01-24.34,1.28-47.82,9.56-71.99,11.01-31.4,1.89-82.44-8.7-112.48-18.98Z"/>
    <path class="cls-1" d="M301.94,373.94c37.26-42.77,73.61-86.49,110-130,8.46,23.52,16.62,47.34,22.92,71.58,2.19,8.42,14.36,51.88,10.18,57.02-4.51,5.56-126.92-1.36-143.1,1.4Z"/>
    <path class="cls-2" d="M338.94,403.94l-5,1c.74-.06,2.95-.82,5-1Z"/>
    <path class="cls-2" d="M349.94,402.94l-4,1c.21-.02,2.12-.84,4-1Z"/>
    <path class="cls-1" d="M108.94,525.94h-4c1.3-2.45,2.97-.35,4,0Z"/>
    <path class="cls-1" d="M347.94,247.94c-2.31,2.16-4.6,4.75-7,7l7-7Z"/>
    <path class="cls-2" d="M294.94,483.94c-.16,0-.98.85-3,1l3-1Z"/>
  </g>
</svg>