<?xml version="1.0" encoding="UTF-8"?>
<svg id="Layer_2" data-name="Layer 2" xmlns="http://www.w3.org/2000/svg" viewBox="0 0 261.27 315.03">
  <defs>
    <style>
      .cls-1 {
        fill: #016699;
      }

      .cls-2 {
        fill: #fefefe;
      }

      .cls-3 {
        fill: #10a39e;
      }
    </style>
  </defs>
  <g id="Layer_1-2" data-name="Layer 1">
    <g id="uuid-9f2c8e29-fa26-49d5-96e5-4b929f0bd38e" data-name="Layer 1-2">
      <path class="cls-1" d="M12.09,184.88c-3.52-.78-3.71-4.21-2.64-7.09.82-2.21,15.75-17.67,18.69-21.35,31.26-39.17,54.9-81.95,61.25-132.56.54-4.32-.1-22.23,3.55-23.64,4.28-1.65,16.71,5.87,20.9,8.24,33.52,18.95,63.85,50.65,81.2,84.92l-66.54,64.07c-1.42.47-13.69-7.65-13.74-8.83-.03-.89,5.99-13.71,6.86-16.39,12.98-40.28,10.97-79.17-17.81-112v121.63c-7.89-2.85-20.47-14.69-28.44-15.31-11.09-.87-18.62,12.29-12.02,21.42l30.57,36.91H12.09Z"/>
      <path class="cls-1" d="M152.75,239.27l-1.48.49c-12.55.91-24.41,5.15-36.35,5.92-24.07,1.54-45.07-9.26-70.68-6.9-4.04.37-17.28,4.02-19.24,3.81-5.1-.57-19.05-26.05-18.02-31.13.26-1.26,2.1-2.91,3.26-3.21,5.96-1.55,23.99.12,31.53-.11,27.11-.83,54.23-2.54,81.32-3.48,7.74,8.01,11.9,4.32,18.29-1.98,10.17-1.18,20.45-1.61,30.65-2.47l2.47-.49c1.14-.1,2.32.1,3.46,0l1.98-.49c23.8-2.07,47.57-4.46,71.43-5.92,8.48,2.02-3.95,17.13-6.34,20.81-4.2,6.46-17.93,27.06-24.04,29.35-16.12,6.05-48.09-5.3-68.23-4.21h0Z"/>
      <path class="cls-3" d="M210.6,120.61c-17.99,21.51-35.96,43.13-54.39,64.27-4.79,5.49-9.78,12.83-14.83,17.8-6.4,6.3-10.55,9.99-18.29,1.98l-52.19-62.76c-1.45-3.98,2.1-7.64,6.07-6.07l51.31,33.74c15.63-14.61,31.6-28.91,47.22-43.52,1.19-1.11,2.32-2.39,3.46-3.46,8.56-8,66.71-64.68,71.93-65.28,4.52-.51,8.85,3.83,6.1,8.09-15.56,18.32-30.97,36.77-46.39,55.21h0Z"/>
      <path class="cls-3" d="M60.79,260.03c-.51-.17-1.33-1.21-1.98,0-4.35-2.51-42.07-1.13-42.51-3.22-.16-.74,13.02-5.34,14.12-5.65,36.39-10.39,58.2,8.13,90.79,3.28,11.3-1.68,21.44-6.19,33.25-6.8,20.83-1.07,37.57,8.18,56.91,7.47,11.57-.43,23.27-5.07,33.6-9.9-8.93,13.15-26.58,20.12-42.04,21.23-17.03,1.23-33.67-3.38-50.93-2.48-12.03.63-23.64,4.73-35.59,5.44-15.52.93-40.76-4.3-55.61-9.38h0Z"/>
      <path class="cls-1" d="M156.22,184.88c18.42-21.15,36.39-42.76,54.39-64.27,4.18,11.63,8.22,23.41,11.33,35.39,1.08,4.16,7.1,25.65,5.03,28.19-2.23,2.75-62.75-.67-70.75.69Z"/>
      <path class="cls-3" d="M174.51,199.71l-2.47.49c.37-.03,1.46-.41,2.47-.49Z"/>
      <path class="cls-3" d="M179.95,199.22l-1.98.49c.1,0,1.05-.42,1.98-.49Z"/>
      <path class="cls-1" d="M60.79,260.03h-1.98c.64-1.21,1.47-.17,1.98,0Z"/>
      <path class="cls-1" d="M178.96,122.59c-1.14,1.07-2.27,2.35-3.46,3.46l3.46-3.46Z"/>
      <path class="cls-3" d="M152.75,239.27c-.08,0-.48.42-1.48.49l1.48-.49Z"/>
    </g>
    <g id="uuid-0a483e5f-aa71-447e-b1f3-98fae18f8ef2" data-name="Layer 1-2">
      <path class="cls-1" d="M13.63,280.42c6.44.79,11.95,6.41,8.53,13.02-.53,1.03-3.64,3.32-3.52,3.54.09.17,2.48.93,3.41,1.94,4.65,5.08.33,14.97-6.34,14.97H0v-33.47c4.3.38,9.44-.51,13.63,0ZM6.21,294.91c4.12.3,12.7.12,10.43-6.47-.38-1.09-2.36-2.51-3.36-2.51h-7.08v8.97ZM6.21,308.72h7.77c5.08,0,5.26-8.97,0-8.97h-7.77v8.97Z"/>
      <path class="cls-1" d="M122.85,289.71c-.14.24-5.02,1.85-5.29,1.78-1.09-.3-2.44-7.45-10.49-4.96-10.65,3.3-7.74,24.92,5.38,21.95,2.67-.6,5.11-4.13,5.45-4.22.26-.06,4.84,1.8,4.97,2.04,1.24,2.37-6.75,7.26-8.97,7.77-26.06,5.98-26.33-39.94.68-33.14,2.48.62,9.79,6.21,8.27,8.78h0Z"/>
      <path class="cls-1" d="M131.84,280.07v12.08c5.09-5.96,15.53-2.68,15.53,5.35v16.39h-5.87v-15.01c0-6.02-9.66-5.57-9.66,0v15.01h-5.87v-33.82h5.87Z"/>
      <path class="cls-1" d="M206.39,280.42v18.64c1.48-.72,7.83-9.32,8.46-9.32h6.73c-.59,1.71-8.23,8.89-8.23,9.78,0,1.24,8.5,12.09,9.27,14.38h-6.73c-.77,0-6.27-10.63-6.9-10.69-.18-.02-2.59,2.4-2.59,2.58v8.11h-5.87v-33.48h5.87Z"/>
      <path class="cls-1" d="M156.69,303.89c-1.08.99,2.22,4.62,3.7,5.1,4.97,1.62,6.7-2.01,8.21-2.01.35,0,3.61,2.28,3.59,2.89-.09,2.53-7.61,4.76-9.78,4.72-18.49-.28-14.33-31.55,3.94-24.68,6.08,2.28,7.68,13.97,6.04,13.97-2.07,0-15.12-.53-15.7,0h0ZM167.05,299.4c-.54-7.08-10.18-7.07-10.7,0h10.7Z"/>
      <path class="cls-1" d="M37.2,289.14c20.54-2.23,17.74,30.36-2.18,24.77-12.26-3.44-10.99-23.34,2.18-24.77ZM37.88,294.3c-7.7.98-7.04,15.46,1.56,15.01,8.6-.44,7.97-16.23-1.56-15.01Z"/>
      <path class="cls-1" d="M227.44,303.89c-.97.81,2.54,4.72,4.3,5.19,4.86,1.31,6.51-2.09,7.96-2.1.37,0,3.73,2.2,3.57,2.88-.69,2.79-7.54,4.8-10.11,4.72-18.2-.58-13.47-31.79,4.53-24.56,6.12,2.46,7.65,13.86,5.81,13.86-2.12,0-15.43-.52-16.05,0h0ZM227.44,299.4c.41.35,9.3-.26,10.7,0,.43-4.76-5.79-7-8.97-3.97-.53.51-2,3.74-1.73,3.97Z"/>
      <path class="cls-1" d="M74.89,313.89h-5.87c-.14,0,.1-2.41,0-2.76-5.89,7.32-19.93,1.92-14.56-7.84.94-1.7,4.6-3.9,6.46-3.9h7.77c-.26-10.35-8.85-2.48-10.17-2.42-.36.01-3.87-1.95-3.96-2.28-.52-1.83,4.87-4.86,6.46-5.21,16.93-3.78,12.99,14.27,13.88,24.41h0ZM63.43,303.3c-12.21,1.92,4.23,11.74,5.26,2.5.39-3.5-2.38-2.95-5.26-2.5Z"/>
      <path class="cls-1" d="M183.05,296.07c-4.28,4.38-1.3,14.49,6.11,12.84,2.08-.46,3.62-3.16,3.98-3.25.39-.1,4.9,1.93,4.96,2.19.17.72-4.04,4.77-5.06,5.29-22.55,11.4-23.72-33.05-.67-23.02,1.39.6,6.12,4.75,5.25,6.18-.13.22-4.61,2.06-4.87,2.01-.58-.12-4.25-7.82-9.7-2.24h0Z"/>
      <path class="cls-1" d="M85.94,283.18v6.56h6.21v5.18h-6.21v11.22c0,4.81,5.93,1.98,6.21,2.24.19.18,1.17,4.94,1.02,5.16-1.64,2.33-13.1,1.1-13.1-5.33v-13.29c0-.17-3.45.17-3.45,0v-5c0-1.27,3.45,0,3.45-.17v-6.56h5.87Z"/>
      <path class="cls-1" d="M261.27,289.04v6.21c0,.57-8.28-1.16-8.28,6.04v12.6h-5.87v-24.16h5.87c.16,0-.25,3.05.17,3.1.47.06,4.56-5.94,8.11-3.79Z"/>
      <path class="cls-2" d="M6.21,308.72v-8.97h7.77c5.26,0,5.08,8.97,0,8.97h-7.77Z"/>
      <path class="cls-2" d="M6.21,294.91v-8.97h7.08c1,0,2.98,1.42,3.36,2.51,2.27,6.59-6.31,6.77-10.43,6.47Z"/>
      <path class="cls-2" d="M167.05,299.4h-10.7c.52-7.07,10.16-7.08,10.7,0Z"/>
      <path class="cls-2" d="M37.88,294.3c9.53-1.21,10.25,14.57,1.56,15.01-8.7.45-9.26-14.03-1.56-15.01Z"/>
      <path class="cls-2" d="M227.44,299.4c-.27-.23,1.19-3.46,1.73-3.97,3.18-3.04,9.41-.8,8.97,3.97-1.4-.26-10.29.35-10.7,0Z"/>
      <path class="cls-2" d="M63.43,303.3c2.87-.45,5.65-1,5.26,2.5-1.03,9.25-17.47-.58-5.26-2.5Z"/>
    </g>
  </g>
</svg>