<?xml version="1.0" encoding="UTF-8"?>
<svg id="Layer_2" xmlns="http://www.w3.org/2000/svg" version="1.1" viewBox="0 0 757 101.3">
  <!-- Generator: Adobe Illustrator 29.6.1, SVG Export Plug-In . SVG Version: 2.1.1 Build 9)  -->
  <defs>
    <style>
      .st0 {
        fill: #016699;
      }
    </style>
  </defs>
  <path class="st0" d="M39.5,1c18.7,2.3,34.6,18.6,24.7,37.7-1.5,3-10.5,9.6-10.2,10.3.3.5,7.2,2.7,9.9,5.6,13.5,14.7,1,43.4-18.4,43.4H0V1c12.4,1.1,27.4-1.5,39.5,0ZM18,43c11.9.9,36.8.3,30.2-18.7-1.1-3.2-6.8-7.3-9.7-7.3h-20.5v26ZM18,83h22.5c14.7,0,15.2-26,0-26h-22.5v26Z"/>
  <path class="st0" d="M356,27.9c-.4.7-14.5,5.4-15.3,5.2-3.2-.9-7.1-21.6-30.4-14.4-30.9,9.6-22.4,72.2,15.6,63.6,7.8-1.8,14.8-12,15.8-12.2.8-.2,14,5.2,14.4,5.9,3.6,6.9-19.5,21-26,22.5-75.5,17.3-76.3-115.7,2-96,7.2,1.8,28.4,18,24,25.4h0Z"/>
  <path class="st0" d="M382,0v35c14.7-17.3,45-7.8,45,15.5v47.5h-17v-43.5c0-17.5-28-16.2-28,0v43.5h-17V0h17Z"/>
  <path class="st0" d="M598,1v54c4.3-2.1,22.7-27,24.5-27h19.5c-1.7,5-23.9,25.8-23.8,28.3,0,3.6,24.6,35,26.8,41.7h-19.5c-2.2,0-18.2-30.8-20-31-.5,0-7.5,6.9-7.5,7.5v23.5h-17V1h17Z"/>
  <path class="st0" d="M454,69c-3.1,2.9,6.4,13.4,10.7,14.8,14.4,4.7,19.4-5.8,23.8-5.8s10.5,6.6,10.4,8.4c-.3,7.3-22,13.8-28.3,13.7-53.6-.8-41.5-91.4,11.4-71.5,17.6,6.6,22.2,40.5,17.5,40.5s-43.8-1.5-45.5,0h0ZM484,56c-1.6-20.5-29.5-20.5-31,0h31Z"/>
  <path class="st0" d="M107.8,26.3c59.5-6.4,51.4,88-6.3,71.8-35.5-10-31.8-67.6,6.3-71.8ZM109.8,41.2c-22.3,2.8-20.4,44.8,4.5,43.5s23.1-47-4.5-43.5Z"/>
  <path class="st0" d="M659,69c-2.8,2.3,7.3,13.7,12.5,15.1,14.1,3.8,18.9-6.1,23-6.1,1.1,0,10.8,6.4,10.3,8.3-2,8.1-21.8,13.9-29.3,13.7-52.7-1.7-39-92.1,13.1-71.2,17.7,7.1,22.2,40.2,16.8,40.2s-44.7-1.5-46.5,0h0ZM659,56c1.2,1,27-.8,31,0,1.3-13.8-16.8-20.3-26-11.5-1.5,1.5-5.8,10.8-5,11.5Z"/>
  <path class="st0" d="M217,98h-17c-.4,0,.3-7,0-8-17.1,21.2-57.8,5.6-42.2-22.7,2.7-4.9,13.3-11.3,18.7-11.3h22.5c-.8-30-25.6-7.2-29.5-7-1,0-11.2-5.6-11.5-6.6-1.5-5.3,14.1-14.1,18.7-15.1,49.1-10.9,37.6,41.3,40.2,70.7h0ZM183.8,67.3c-35.4,5.6,12.2,34,15.2,7.2,1.1-10.1-6.9-8.5-15.2-7.2Z"/>
  <path class="st0" d="M530.4,46.4c-12.4,12.7-3.8,42,17.7,37.2,6-1.3,10.5-9.2,11.5-9.4,1.1-.3,14.2,5.6,14.4,6.3.5,2.1-11.7,13.8-14.7,15.3-65.3,33-68.7-95.8-2-66.7,4,1.8,17.7,13.8,15.2,17.9-.4.7-13.4,6-14.1,5.8-1.7-.3-12.3-22.7-28.1-6.5h0Z"/>
  <path class="st0" d="M249,9v19h18v15h-18v32.5c0,13.9,17.2,5.7,18,6.5.6.5,3.4,14.3,3,14.9-4.8,6.7-37.9,3.2-37.9-15.4v-38.5c0-.5-10,.5-10,0v-14.5c0-3.7,10,0,10-.5V9h17Z"/>
  <path class="st0" d="M757,26v18c0,1.7-24-3.4-24,17.5v36.5h-17V28h17c.5,0-.7,8.8.5,9,1.3.2,13.2-17.2,23.5-11Z"/>
</svg>